<svg xmlns="http://www.w3.org/2000/svg" width="62" height="56" viewBox="0 0 62 56">
  <g fill="none" fill-rule="evenodd" transform="translate(-1 -4)">
    <path stroke="#80FFEA" stroke-opacity=".798" stroke-width="6" d="M32,4.23760431 C32.8632487,4.23760431 33.7264973,4.4608953 34.5,4.90747729 L34.5,4.90747729 L54.2128129,16.2886751 C54.9863156,16.7352571 55.6113156,17.3712069 56.0429399,18.1188022 C56.4745643,18.8663974 56.7128129,19.7256382 56.7128129,20.6188022 L56.7128129,20.6188022 L56.7128129,43.3811978 C56.7128129,45.1675258 55.7598183,46.8181609 54.2128129,47.7113249 L54.2128129,47.7113249 L34.5,59.0925227 C32.9529946,59.9856867 31.0470054,59.9856867 29.5,59.0925227 L29.5,59.0925227 L9.78718708,47.7113249 C8.2401817,46.8181609 7.28718708,45.1675258 7.28718708,43.3811978 L7.28718708,43.3811978 L7.28718708,20.6188022 C7.28718708,18.8324742 8.2401817,17.1818391 9.78718708,16.2886751 L9.78718708,16.2886751 L29.5,4.90747729 C30.2735027,4.4608953 31.1367513,4.23760431 32,4.23760431 Z" transform="rotate(90 32 32)"/>
    <polygon fill="#A7A8AE" points="32 8 52.785 20 52.785 44 32 56 11.215 44 11.215 20" transform="rotate(90 32 32)"/>
    <circle cx="32" cy="32" r="15" fill="#D2D1D6" stroke="#8C8C8C" stroke-width="2"/>
  </g>
</svg>
